<svg width="195" height="35" viewBox="0 0 195 35" fill="none" xmlns="http://www.w3.org/2000/svg">
<path d="M109.759 27.7005C109.963 27.4896 110.413 26.8433 110.639 26.4548L120.311 7.2241L124.711 26.1481C124.711 26.1481 125.24 27.5193 125.495 27.7005H123.177C123.016 27.1638 120.701 18.782 120.701 18.782H115.78C115.78 18.782 111.868 27.4548 111.76 27.7005H109.76H109.759ZM116.244 17.7785H120.421L118.869 11.9142L116.244 17.7785ZM128.942 22.2195L128.913 8.34083H125.881C126.268 8.55344 126.484 9.34436 126.533 10.2904C126.59 10.705 126.759 22.2978 126.805 23.0592C127.268 30.002 137.165 31.3156 137.761 22.2874C137.808 21.4633 138.203 13.0379 138.237 12.4699C138.348 10.8131 138.547 8.7886 139.106 8.34083H136.893L136.876 21.8431C136.865 29.1674 128.964 28.9427 128.939 22.2177L128.942 22.2195ZM141.069 8.39139C141.383 8.77992 141.649 9.35487 141.664 10.4611L141.207 26.1534C141.135 26.8015 140.968 27.4321 140.774 27.7022H143.371L144.292 8.99596C150.754 7.28331 153.649 17.4545 145.084 19.0486C145.703 19.7751 154.11 28.7528 154.488 29.1692C155.641 30.441 158.771 31.5909 159.509 31.8923C157.984 30.9323 155.671 28.4113 155.385 27.9305C155.981 27.9444 164.739 27.9305 164.739 27.9305L165.549 26.1098C165.549 26.1098 162.71 27.1377 158.142 27.1377C157.772 27.1377 157.258 27.1778 157.258 26.5628V18.8674H164.242V17.7001H157.258L157.445 9.23462C162.131 9.2625 164.242 10.3235 164.242 10.3235V8.34083H154.27C154.27 8.34083 154.861 8.92103 154.906 10.3235C154.906 10.3235 155.107 27.643 155.107 27.7005C154.835 27.3242 147.83 18.6357 147.83 18.6357C153.609 17.5206 157.74 5.9244 141.071 8.38964L141.069 8.39139ZM74.2178 27.7249C74.2178 27.7249 76.5252 27.7231 76.5594 27.7249C76.4172 27.6587 76.078 26.8642 76.1077 26.6046L76.3069 8.26247H73.1844C73.5455 8.6283 73.9066 9.33743 73.9066 9.9733C73.9066 9.9733 74.2161 27.7214 74.2161 27.7249H74.2178ZM78.6523 8.26247L80.0448 10.0761L79.5224 25.9443C79.4859 26.6133 79.2265 27.4601 79.0547 27.7231C79.0273 27.7214 80.889 27.7231 80.889 27.7231L80.8822 11.2539L94.7956 29.2998L95.6299 10.6493C95.6573 10.2382 95.439 9.28686 96.4862 9.26074H99.6743L99.8066 26.1395C99.7876 26.8416 99.7275 27.244 99.5556 27.7231C99.564 27.7214 102.114 27.7214 102.124 27.7231C102.011 27.3224 101.915 26.8624 101.922 26.2178L102.496 9.27118C104.53 9.26775 106.72 9.30781 108.529 9.98899L103.78 32.3731C103.536 33.2634 103.295 33.9202 103.029 34.2739H119.857L121.26 31.8087C118.261 32.8435 110.742 33.5108 107.091 33.4567C105.909 33.4394 105.864 32.8191 106.044 32.1031L113.397 0.905051H109.93C110.28 1.3528 110.28 1.81449 110.146 2.5741L108.914 8.26422H94.1515V25.2753L81.9864 8.26422H78.6485L78.6523 8.26247ZM195 8.44889H181.131V25.446L168.971 8.44188H165.632C165.807 8.65793 166.87 10.05 167.019 10.2625C167.019 10.7556 166.486 26.1307 166.486 26.1307C166.457 26.8451 166.44 27.3903 166.201 27.913H167.867L167.86 11.4385C167.86 11.4385 181.528 29.1344 181.77 29.488C181.792 28.8033 182.465 10.8183 182.465 10.8183C182.462 10.4089 182.462 9.27643 183.538 9.27293H187.013L187.123 26.5907C187.083 27.2684 187.006 27.4426 186.865 27.906C186.865 27.9095 189.329 27.913 189.329 27.913C189.207 27.4618 189.146 27.2248 189.174 26.6012L189.765 9.27468C191.843 9.27818 193.134 9.27818 194.998 9.83919V8.45064L195 8.44889ZM63.2959 18.9005L58.2889 29.6814C54.9016 36.7113 46.8684 36.2687 41.4625 31.293L42.3205 28.5228C49.5043 40.3055 61.5335 31.0455 55.1561 22.8484L45.8007 11.6354C39.4284 4.18218 35.582 12.0762 39.1292 14.9456L44.3787 18.9702C48.2423 21.7456 46.9509 27.643 41.956 28.1691C39.6485 28.413 37.0091 27.3938 35.4255 26.2841L34.9957 27.7753H24.7668C24.9456 27.4426 25.1416 26.8189 25.1399 26.3433L25.1141 9.144C25.1244 8.82866 24.925 8.80779 24.808 9.07082L15.7861 28.6343L11.8005 10.9036C11.6698 10.4699 11.4033 10.8793 11.4033 10.8793C10.7293 11.8114 7.79077 15.9962 7.26462 16.7157C6.87259 17.2436 6.71268 17.5991 6.41694 18.4702C6.26735 18.9039 3.03481 32.0613 2.88865 32.5735C2.75626 33.0352 2.93852 33.9899 3.18612 34.2286H0C0.106606 34.1398 0.631036 33.523 0.751394 33.0334L3.28584 19.7542C3.85326 17.1391 3.13281 14.4927 3.13281 14.4927C1.55953 5.19963 1.21908 1.18903 0.400629 0.556602H3.05028C3.13281 1.04617 6.18654 15.6774 6.37396 16.3882C6.18654 16.6843 16.5358 0.685528 16.5358 0.685528H19.2078C19.2078 0.685528 17.8718 1.96955 17.6311 2.29709C17.4265 2.57062 14.1991 7.02897 13.795 7.58296L16.8797 24.4024L23.5529 8.21198H34.6467V10.0482C33.4328 9.43323 29.2115 8.68237 27.542 8.90184L27.3838 17.0659C27.3924 17.5137 27.3872 17.5503 27.7827 17.5503L34.6621 17.5416V18.6653H27.3012L27.0725 26.5541C27.0725 27.1046 27.4629 27.1587 27.7964 27.1726C30.6799 27.2841 33.3931 26.9025 35.386 26.0175L35.8623 24.2491C38.0786 26.9931 39.8703 27.9601 42.207 27.2788C44.4423 26.6098 46.5968 23.5087 42.4735 20.5922L38.4535 17.7141C32.8962 13.4595 37.5955 4.25883 45.4705 8.86003C45.4447 0.849301 55.5138 -3.14214 62.6236 2.96958L61.9238 5.60731C55.6461 -4.72583 44.15 3.77101 49.4665 11.1406L56.9942 21.1114C58.6844 23.2595 58.975 24.8153 58.975 24.8153L67.8352 7.63002L72.2421 26.3032C72.4003 26.9008 72.7218 27.4931 72.954 27.7179C72.9505 27.7162 70.4212 27.7162 70.4196 27.7179C70.4212 27.7162 68.0794 18.9005 68.0794 18.9005L63.2925 18.8935L63.2959 18.9005ZM63.7877 17.6879H67.763L66.341 12.1459L63.7894 17.6879H63.7877Z" fill="white"/>
</svg>
