<svg width="59" height="58" viewBox="0 0 59 58" fill="none" xmlns="http://www.w3.org/2000/svg">
<path fill-rule="evenodd" clip-rule="evenodd" d="M27.7388 40.7735C27.5788 42.8624 27.1492 45.2793 26.3911 46.9884C29.8278 46.9884 33.2646 46.9884 36.7014 46.9884C36.7941 46.2547 37.0805 45.7196 37.2405 45.0549C34.7051 45.78 31.1082 46.2461 29.2214 45.9526C29.3477 44.2867 29.6257 42.1719 29.9626 40.4973C32.3717 39.3579 35.1262 37.174 34.7472 33.4536C34.5282 31.3129 33.1214 30.2512 31.8495 29.0341C32.0348 27.7739 32.2791 26.574 32.456 25.3051C31.8916 25.1498 31.0408 25.2793 30.367 25.2361C30.0974 25.9525 30.0721 26.9107 29.8952 27.7221C29.533 27.5149 29.154 27.3336 28.8844 27.0315C29.1118 25.7885 29.3393 24.5542 29.4235 23.1644C30.3248 21.861 31.1756 20.4972 32.1864 19.2974C33.5089 19.798 34.5871 20.5662 35.4211 21.5762C35.758 20.877 35.9517 19.6858 36.0276 18.9521C35.1684 18.5464 34.107 18.3392 33.0625 18.1234C34.4776 15.6633 36.2466 13.5658 37.7796 11.2179C37.8049 11.2179 37.8218 11.2179 37.847 11.2179C37.847 11.1489 37.847 11.0798 37.847 11.0107C37.1479 11.0107 36.4572 11.0107 35.758 11.0107C34.3681 13.3845 32.9193 15.6979 31.4452 17.9853C30.0637 17.9249 29.0108 18.2011 27.941 18.4687C27.2166 15.9827 26.5343 13.4708 25.7846 11.0107C24.8664 11.0107 23.9398 11.0107 23.0216 11.0107C23.8808 11.356 23.9819 12.3314 24.302 13.3586C24.9085 15.3008 25.6835 17.5019 26.2563 19.2283C24.799 20.4972 22.4994 22.6724 23.6281 25.5123C24.2178 26.9884 25.5824 27.653 26.728 28.6888C26.5511 30.1822 26.4669 31.7791 25.7846 32.7631C26.6353 32.7631 27.4945 32.7631 28.3453 32.7631C28.3285 31.9603 28.3706 30.7519 28.4801 29.8628C28.8928 29.975 29.1708 30.2167 29.4235 30.4843C29.0023 33.4623 28.5306 36.3799 28.0084 39.2543C24.7316 39.5305 22.9964 38.2185 21.4717 36.6992C21.2527 37.3035 21.3117 38.1926 21 38.7018C21 38.9522 21 39.2111 21 39.4614C22.7184 40.4196 24.9591 41.1274 27.7388 40.7735ZM31.3778 31.9344C33.829 33.5227 33.0288 37.9595 30.2322 38.6328C30.6281 36.4144 30.965 34.1356 31.3778 31.9344ZM27.1997 25.7195C25.5234 24.9944 24.9338 21.8783 26.5932 20.6785C27.4271 21.9819 27.5872 23.8118 27.1997 25.7195ZM28.2779 19.6426C28.9265 19.3578 29.8868 19.047 30.7039 19.1592C30.1901 20.1519 29.5499 21.0151 29.0192 21.9905C28.657 21.3258 28.5222 20.4195 28.2779 19.6426Z" fill="#1D1D1D"/>
</svg>
