<svg width="17" height="36" viewBox="0 0 17 36" fill="none" xmlns="http://www.w3.org/2000/svg">
<path fill-rule="evenodd" clip-rule="evenodd" d="M6.73881 29.7627C6.57877 31.8517 6.14917 34.2686 5.39105 35.9777C8.82784 35.9777 12.2646 35.9777 15.7014 35.9777C15.7941 35.244 16.0805 34.7088 16.2405 34.0442C13.7051 34.7692 10.1082 35.2354 8.22135 34.9419C8.3477 33.2759 8.62568 31.1611 8.96262 29.4865C11.3717 28.3471 14.1262 26.1632 13.7472 22.4429C13.5282 20.3022 12.1214 19.2405 10.8495 18.0234C11.0348 16.7631 11.2791 15.5633 11.456 14.2944C10.8916 14.139 10.0408 14.2685 9.36695 14.2254C9.0974 14.9418 9.07213 15.8999 8.89523 16.7113C8.53302 16.5042 8.15396 16.3229 7.88441 16.0208C8.11185 14.7778 8.33928 13.5434 8.42352 12.1537C9.32483 10.8503 10.1756 9.48644 11.1864 8.28661C12.5089 8.78726 13.5871 9.5555 14.4211 10.5654C14.758 9.86625 14.9517 8.67505 15.0276 7.94134C14.1684 7.53564 13.107 7.32847 12.0625 7.11267C13.4776 4.65259 15.2466 2.55504 16.7796 0.207165C16.8049 0.207165 16.8218 0.207165 16.847 0.207165C16.847 0.13811 16.847 0.0690551 16.847 0C16.1479 0 15.4572 0 14.758 0C13.3681 2.37377 11.9193 4.68711 10.4452 6.97456C9.0637 6.91414 8.01076 7.19036 6.94098 7.45795C6.21655 4.97197 5.53425 2.46009 4.78456 0C3.86639 0 2.93981 0 2.02164 0C2.88084 0.345275 2.98192 1.32068 3.30202 2.34787C3.90851 4.29005 4.68347 6.49118 5.25627 8.21756C3.79901 9.48644 1.49939 11.6617 2.62814 14.5016C3.21778 15.9776 4.58239 16.6423 5.72799 17.6781C5.5511 19.1714 5.46686 20.7683 4.78456 21.7524C5.63533 21.7524 6.49453 21.7524 7.34531 21.7524C7.32846 20.9496 7.37058 19.7411 7.48008 18.852C7.89283 18.9643 8.17081 19.2059 8.42352 19.4735C8.00234 22.4515 7.53062 25.3691 7.00837 28.2435C3.73162 28.5198 1.99637 27.2077 0.471717 25.6885C0.252705 26.2927 0.31167 27.1818 0 27.6911C0 27.9414 0 28.2004 0 28.4507C1.7184 29.4088 3.95905 30.1167 6.73881 29.7627ZM10.3778 20.9237C12.829 22.512 12.0288 26.9488 9.23217 27.622C9.62808 25.4036 9.96502 23.1248 10.3778 20.9237ZM6.19971 14.7087C4.52343 13.9837 3.93378 10.8675 5.59321 9.66771C6.42714 10.9711 6.58719 12.8011 6.19971 14.7087ZM7.27792 8.63189C7.92653 8.34704 8.88681 8.03629 9.70389 8.1485C9.19006 9.14117 8.54987 10.0044 8.01919 10.9798C7.65698 10.3151 7.5222 9.40876 7.27792 8.63189Z" fill="white"/>
</svg>
