<svg width="24" height="24" viewBox="0 0 24 24" fill="none" xmlns="http://www.w3.org/2000/svg">
<path d="M19.875 10.25C19.875 16.375 12 21.625 12 21.625C12 21.625 4.125 16.375 4.125 10.25C4.125 8.16142 4.95468 6.15839 6.43154 4.68153C7.90839 3.20468 9.91142 2.375 12 2.375C14.0885 2.375 16.0916 3.20468 17.5685 4.68153C19.0453 6.15839 19.875 8.16142 19.875 10.25Z" stroke="#1D1D1D" stroke-width="2" stroke-linecap="round" stroke-linejoin="round"/>
<path d="M12 13C13.6569 13 15 11.6569 15 10C15 8.34315 13.6569 7 12 7C10.3431 7 9 8.34315 9 10C9 11.6569 10.3431 13 12 13Z" stroke="#1D1D1D" stroke-width="2" stroke-linecap="round" stroke-linejoin="round"/>
</svg>
