<svg width="36" height="36" viewBox="0 0 36 36" fill="none" xmlns="http://www.w3.org/2000/svg">
<rect width="36" height="36" rx="8" fill="#D3D3D3"/>
<path fill-rule="evenodd" clip-rule="evenodd" d="M21.0813 10.8509C20.3774 11.7053 19.1953 12.3462 18.2524 12.3462C18.1461 12.3462 18.0399 12.3328 17.9735 12.3194C17.9601 12.266 17.9336 12.1059 17.9336 11.9457C17.9336 10.8509 18.4781 9.78292 19.0758 9.10203C19.8328 8.20759 21.0945 7.54004 22.1438 7.5C22.1703 7.62011 22.1836 7.767 22.1836 7.91389C22.1836 8.99526 21.7188 10.0766 21.0813 10.8509ZM16.4624 28.102C15.9892 28.3064 15.5406 28.5 14.932 28.5C13.6305 28.5 12.7274 27.2985 11.6914 25.83C10.4828 24.0944 9.5 21.411 9.5 18.8745C9.5 14.7893 12.143 12.6265 14.7461 12.6265C15.5058 12.6265 16.2001 12.9066 16.8174 13.1556C17.3115 13.3549 17.7564 13.5343 18.1461 13.5343C18.4842 13.5343 18.9054 13.367 19.3964 13.172C20.0822 12.8995 20.9039 12.5731 21.825 12.5731C22.4094 12.5731 24.5476 12.6265 25.9555 14.6557C25.9474 14.662 25.9302 14.6735 25.9051 14.6901C25.5587 14.92 23.711 16.1462 23.711 18.6609C23.711 21.7715 26.407 22.8796 26.5 22.9063C26.4976 22.9122 26.4921 22.9294 26.4833 22.9566C26.3948 23.2323 25.9722 24.5467 25.0656 25.8833C24.1758 27.165 23.2328 28.4733 21.825 28.4733C21.1311 28.4733 20.689 28.2765 20.2325 28.0733C19.7453 27.8564 19.2418 27.6323 18.3985 27.6323C17.5505 27.6323 16.991 27.8738 16.4624 28.102Z" fill="#636363"/>
</svg>
