<svg width="36" height="36" viewBox="0 0 36 36" fill="none" xmlns="http://www.w3.org/2000/svg">
<rect width="36" height="36" rx="8" fill="#D3D3D3"/>
<mask id="mask0_7736_6042" style="mask-type:luminance" maskUnits="userSpaceOnUse" x="9" y="9" width="18" height="18">
<path d="M26.8271 16.3303H18.1917V19.7905H23.1537C23.0739 20.2802 22.8948 20.7619 22.6325 21.2012C22.332 21.7045 21.9605 22.0876 21.5797 22.3794C20.4391 23.2535 19.1092 23.4322 18.1857 23.4322C15.8527 23.4322 13.8593 21.9243 13.0876 19.8754C13.0564 19.8011 13.0358 19.7243 13.0106 19.6484C12.8401 19.1269 12.7469 18.5746 12.7469 18.0006C12.7469 17.4032 12.8478 16.8313 13.0317 16.2912C13.7574 14.1611 15.7957 12.57 18.1874 12.57C18.6684 12.57 19.1317 12.6273 19.571 12.7415C20.5749 13.0025 21.2851 13.5166 21.7203 13.9232L24.3459 11.3518C22.7488 9.88738 20.6667 9 18.183 9C16.1975 8.99996 14.3644 9.61859 12.8622 10.6641C11.644 11.512 10.6449 12.6472 9.97059 13.9656C9.34342 15.188 9 16.5427 9 17.9992C9 19.4558 9.34394 20.8246 9.97112 22.0357V22.0439C10.6336 23.3297 11.6023 24.4367 12.7797 25.2807C13.8083 26.018 15.6526 27 18.183 27C19.6382 27 20.9278 26.7376 22.0652 26.246C22.8857 25.8913 23.6126 25.4287 24.2708 24.8341C25.1405 24.0485 25.8216 23.0768 26.2864 21.9589C26.7513 20.8409 27 19.5766 27 18.206C27 17.5677 26.9359 16.9194 26.8271 16.3302V16.3303Z" fill="white"/>
</mask>
<g mask="url(#mask0_7736_6042)">
<g filter="url(#filter0_f_7736_6042)">
<path d="M8.86719 18.0586C8.87673 19.4922 9.28524 20.9714 9.90358 22.1654V22.1736C10.3504 23.0408 10.961 23.7258 11.6565 24.4045L15.857 22.8718C15.0623 22.4681 14.941 22.2207 14.3714 21.7694C13.7892 21.1823 13.3553 20.5084 13.0851 19.7182H13.0742L13.0851 19.71C12.9073 19.1881 12.8898 18.6342 12.8832 18.0586H8.86719Z" fill="url(#paint0_radial_7736_6042)"/>
</g>
<g filter="url(#filter1_f_7736_6042)">
<path d="M18.1908 8.93359C17.7756 10.3922 17.9344 11.81 18.1908 12.6349C18.6703 12.6353 19.1321 12.6924 19.5701 12.8063C20.574 13.0673 21.2841 13.5814 21.7193 13.988L24.4122 11.3509C22.8169 9.88822 20.8971 8.9359 18.1908 8.93359Z" fill="url(#paint1_radial_7736_6042)"/>
</g>
<g filter="url(#filter2_f_7736_6042)">
<path d="M18.182 8.92383C16.1455 8.92378 14.2654 9.55829 12.7246 10.6306C12.1525 11.0288 11.6276 11.4887 11.1601 12.0002C11.0376 13.1491 12.0768 14.5612 14.1348 14.5495C15.1333 13.388 16.61 12.6366 18.2537 12.6366C18.2552 12.6366 18.2566 12.6367 18.2581 12.6367L18.191 8.92409C18.188 8.92409 18.185 8.92383 18.182 8.92383Z" fill="url(#paint2_radial_7736_6042)"/>
</g>
<g filter="url(#filter3_f_7736_6042)">
<path d="M24.9076 18.4771L23.0899 19.7258C23.0102 20.2155 22.8309 20.6973 22.5686 21.1365C22.2681 21.6398 21.8966 22.023 21.5159 22.3148C20.3776 23.187 19.0513 23.3666 18.128 23.3673C17.1736 24.9927 17.0063 25.8069 18.1951 27.1187C19.6661 27.1176 20.9701 26.8521 22.1204 26.3549C22.9519 25.9954 23.6886 25.5266 24.3556 24.9241C25.2369 24.1279 25.9273 23.1431 26.3984 22.0102C26.8695 20.8772 27.1214 19.5961 27.1214 18.207L24.9076 18.4771Z" fill="#636363"/>
</g>
<g filter="url(#filter4_f_7736_6042)">
<path d="M18.0605 16.2002V19.9233H26.806C26.8829 19.4134 27.1373 18.7536 27.1373 18.2074C27.1373 17.5691 27.0732 16.7894 26.9645 16.2002H18.0605Z" fill="#989898"/>
</g>
<g filter="url(#filter5_f_7736_6042)">
<path d="M11.2021 11.8672C10.6624 12.4577 10.2014 13.1186 9.8358 13.8334C9.20864 15.0558 8.86523 16.5419 8.86523 17.9985C8.86523 18.019 8.86693 18.0391 8.86707 18.0596C9.14482 18.5921 12.7037 18.4902 12.8831 18.0596C12.8829 18.0395 12.8806 18.0199 12.8806 17.9998C12.8806 17.4024 12.9815 16.962 13.1655 16.4219C13.3924 15.7557 13.7478 15.1422 14.2022 14.6137C14.3052 14.4822 14.58 14.1995 14.6601 14.0299C14.6906 13.9653 14.6047 13.929 14.5999 13.9063C14.5945 13.8809 14.4792 13.9013 14.4534 13.8824C14.3714 13.8222 14.209 13.7908 14.1105 13.7629C13.8997 13.7032 13.5505 13.5717 13.3565 13.4353C12.7433 13.0041 11.7865 12.4891 11.2021 11.8672Z" fill="url(#paint3_radial_7736_6042)"/>
</g>
<g filter="url(#filter6_f_7736_6042)">
<path d="M13.3706 13.9077C14.7925 14.769 15.2014 13.4729 16.1467 13.0674L14.5023 9.65723C13.8974 9.91147 13.3258 10.2273 12.7955 10.5964C12.0036 11.1476 11.3043 11.8202 10.7266 12.5856L13.3706 13.9077Z" fill="url(#paint4_radial_7736_6042)"/>
</g>
<g filter="url(#filter7_f_7736_6042)">
<path d="M13.9496 22.6091C12.0409 23.2981 11.7421 23.3229 11.5664 24.5057C11.9021 24.8333 12.2629 25.1364 12.6462 25.4112C13.6748 26.1485 15.6533 27.1305 18.1837 27.1305C18.1867 27.1305 18.1895 27.1302 18.1925 27.1302V23.2996C18.1906 23.2996 18.1884 23.2998 18.1865 23.2998C17.2389 23.2998 16.4817 23.0509 15.7054 22.6181C15.514 22.5114 15.1667 22.7979 14.9902 22.6698C14.7467 22.4931 14.1607 22.822 13.9496 22.6091Z" fill="url(#paint5_radial_7736_6042)"/>
</g>
<g opacity="0.5" filter="url(#filter8_f_7736_6042)">
<path d="M17.0762 23.1807V27.0655C17.4302 27.107 17.7987 27.1322 18.1852 27.1322C18.5727 27.1322 18.9475 27.1123 19.3118 27.0757V23.2068C18.9036 23.2766 18.5191 23.3015 18.1879 23.3015C17.8065 23.3015 17.4356 23.257 17.0762 23.1807Z" fill="url(#paint6_linear_7736_6042)"/>
</g>
</g>
<defs>
<filter id="filter0_f_7736_6042" x="8.39711" y="17.5885" width="7.9299" height="7.28586" filterUnits="userSpaceOnUse" color-interpolation-filters="sRGB">
<feFlood flood-opacity="0" result="BackgroundImageFix"/>
<feBlend mode="normal" in="SourceGraphic" in2="BackgroundImageFix" result="shape"/>
<feGaussianBlur stdDeviation="0.23504" result="effect1_foregroundBlur_7736_6042"/>
</filter>
<filter id="filter1_f_7736_6042" x="17.4655" y="8.46351" width="7.41672" height="5.99436" filterUnits="userSpaceOnUse" color-interpolation-filters="sRGB">
<feFlood flood-opacity="0" result="BackgroundImageFix"/>
<feBlend mode="normal" in="SourceGraphic" in2="BackgroundImageFix" result="shape"/>
<feGaussianBlur stdDeviation="0.23504" result="effect1_foregroundBlur_7736_6042"/>
</filter>
<filter id="filter2_f_7736_6042" x="10.6803" y="8.45375" width="8.04782" height="6.56614" filterUnits="userSpaceOnUse" color-interpolation-filters="sRGB">
<feFlood flood-opacity="0" result="BackgroundImageFix"/>
<feBlend mode="normal" in="SourceGraphic" in2="BackgroundImageFix" result="shape"/>
<feGaussianBlur stdDeviation="0.23504" result="effect1_foregroundBlur_7736_6042"/>
</filter>
<filter id="filter3_f_7736_6042" x="16.8873" y="17.737" width="10.7041" height="9.85178" filterUnits="userSpaceOnUse" color-interpolation-filters="sRGB">
<feFlood flood-opacity="0" result="BackgroundImageFix"/>
<feBlend mode="normal" in="SourceGraphic" in2="BackgroundImageFix" result="shape"/>
<feGaussianBlur stdDeviation="0.23504" result="effect1_foregroundBlur_7736_6042"/>
</filter>
<filter id="filter4_f_7736_6042" x="17.5905" y="15.7301" width="10.0168" height="4.6633" filterUnits="userSpaceOnUse" color-interpolation-filters="sRGB">
<feFlood flood-opacity="0" result="BackgroundImageFix"/>
<feBlend mode="normal" in="SourceGraphic" in2="BackgroundImageFix" result="shape"/>
<feGaussianBlur stdDeviation="0.23504" result="effect1_foregroundBlur_7736_6042"/>
</filter>
<filter id="filter5_f_7736_6042" x="8.39516" y="11.3971" width="6.74167" height="7.49485" filterUnits="userSpaceOnUse" color-interpolation-filters="sRGB">
<feFlood flood-opacity="0" result="BackgroundImageFix"/>
<feBlend mode="normal" in="SourceGraphic" in2="BackgroundImageFix" result="shape"/>
<feGaussianBlur stdDeviation="0.23504" result="effect1_foregroundBlur_7736_6042"/>
</filter>
<filter id="filter6_f_7736_6042" x="7.42171" y="6.35238" width="12.0299" height="11.1497" filterUnits="userSpaceOnUse" color-interpolation-filters="sRGB">
<feFlood flood-opacity="0" result="BackgroundImageFix"/>
<feBlend mode="normal" in="SourceGraphic" in2="BackgroundImageFix" result="shape"/>
<feGaussianBlur stdDeviation="1.65243" result="effect1_foregroundBlur_7736_6042"/>
</filter>
<filter id="filter7_f_7736_6042" x="11.0963" y="22.1237" width="7.56614" height="5.47678" filterUnits="userSpaceOnUse" color-interpolation-filters="sRGB">
<feFlood flood-opacity="0" result="BackgroundImageFix"/>
<feBlend mode="normal" in="SourceGraphic" in2="BackgroundImageFix" result="shape"/>
<feGaussianBlur stdDeviation="0.23504" result="effect1_foregroundBlur_7736_6042"/>
</filter>
<filter id="filter8_f_7736_6042" x="16.6061" y="22.7106" width="3.17575" height="4.89182" filterUnits="userSpaceOnUse" color-interpolation-filters="sRGB">
<feFlood flood-opacity="0" result="BackgroundImageFix"/>
<feBlend mode="normal" in="SourceGraphic" in2="BackgroundImageFix" result="shape"/>
<feGaussianBlur stdDeviation="0.23504" result="effect1_foregroundBlur_7736_6042"/>
</filter>
<radialGradient id="paint0_radial_7736_6042" cx="0" cy="0" r="1" gradientTransform="matrix(-0.374041 -8.96393 13.4483 -0.537918 15.7729 24.2694)" gradientUnits="userSpaceOnUse">
<stop offset="0.141612" stop-color="#6C6C6C"/>
<stop offset="0.247515" stop-color="#686868"/>
<stop offset="0.311547" stop-color="#646464"/>
<stop offset="0.366013" stop-color="#636363"/>
<stop offset="0.445673" stop-color="#666666"/>
<stop offset="0.540305" stop-color="#777777"/>
<stop offset="0.615636" stop-color="#7F7F7F"/>
<stop offset="0.699345" stop-color="#818181"/>
<stop offset="0.771242" stop-color="#818181"/>
<stop offset="0.860566" stop-color="#858585"/>
</radialGradient>
<radialGradient id="paint1_radial_7736_6042" cx="0" cy="0" r="1" gradientTransform="matrix(6.35225 -1.52668e-05 -8.92835e-06 8.03195 24.1603 13.7972)" gradientUnits="userSpaceOnUse">
<stop offset="0.408458" stop-color="#A5A5A5"/>
<stop offset="1" stop-color="#A0A0A0"/>
</radialGradient>
<radialGradient id="paint2_radial_7736_6042" cx="0" cy="0" r="1" gradientTransform="matrix(-8.89996 4.82619 6.68907 11.8245 20.6914 7.76118)" gradientUnits="userSpaceOnUse">
<stop offset="0.231273" stop-color="#A0A0A0"/>
<stop offset="0.311547" stop-color="#A0A0A0"/>
<stop offset="0.457516" stop-color="#A0A0A0"/>
<stop offset="0.540305" stop-color="#9F9F9F"/>
<stop offset="0.699346" stop-color="#9C9C9C"/>
<stop offset="0.771242" stop-color="#999999"/>
<stop offset="0.860566" stop-color="#949494"/>
<stop offset="1" stop-color="#8C8C8C"/>
</radialGradient>
<radialGradient id="paint3_radial_7736_6042" cx="0" cy="0" r="1" gradientTransform="matrix(-1.14221 9.63913 13.6126 1.54626 17.4026 10.6223)" gradientUnits="userSpaceOnUse">
<stop offset="0.366013" stop-color="#9D9D9D"/>
<stop offset="0.457516" stop-color="#8D8D8D"/>
<stop offset="0.540305" stop-color="#898989"/>
<stop offset="0.615636" stop-color="#868686"/>
<stop offset="0.771242" stop-color="#858585"/>
<stop offset="0.860566" stop-color="#848484"/>
<stop offset="0.915033" stop-color="#838383"/>
<stop offset="1" stop-color="#7F7F7F"/>
</radialGradient>
<radialGradient id="paint4_radial_7736_6042" cx="0" cy="0" r="1" gradientTransform="matrix(-3.30159 3.57508 -10.2992 -9.11745 15.7973 10.5211)" gradientUnits="userSpaceOnUse">
<stop offset="0.315904" stop-color="#9E9E9E"/>
<stop offset="0.603818" stop-color="#969696"/>
<stop offset="0.726837" stop-color="#929292"/>
<stop offset="0.884534" stop-color="#8D8D8D"/>
<stop offset="1" stop-color="#898989"/>
</radialGradient>
<radialGradient id="paint5_radial_7736_6042" cx="0" cy="0" r="1" gradientTransform="matrix(-8.89996 -4.82619 6.68907 -11.8245 20.6929 28.2384)" gradientUnits="userSpaceOnUse">
<stop offset="0.231273" stop-color="#666666"/>
<stop offset="0.311547" stop-color="#666666"/>
<stop offset="0.366013" stop-color="#666666"/>
<stop offset="0.457516" stop-color="#666666"/>
<stop offset="0.540305" stop-color="#676767"/>
<stop offset="0.699346" stop-color="#747474"/>
<stop offset="0.771242" stop-color="#767676"/>
<stop offset="0.860566" stop-color="#6D6D6D"/>
<stop offset="0.915033" stop-color="#696969"/>
<stop offset="1" stop-color="#656565"/>
</radialGradient>
<linearGradient id="paint6_linear_7736_6042" x1="17.0762" y1="25.1564" x2="19.3118" y2="25.1564" gradientUnits="userSpaceOnUse">
<stop stop-color="#666666"/>
<stop offset="1" stop-color="#636363"/>
</linearGradient>
</defs>
</svg>
